<svg viewBox="0 0 92 92" fill="none" xmlns="http://www.w3.org/2000/svg">
<path d="M81.8367 55.1768L82.0416 53.7865L86.5733 54.4545L82.6304 51.3739C82.5296 51.2976 82.459 51.2004 82.4185 51.0824C82.3776 50.9679 82.3662 50.8488 82.3845 50.725C82.4022 50.6047 82.4472 50.4956 82.5194 50.3979C82.5912 50.3036 82.6863 50.2345 82.8048 50.1905L87.4705 48.368L82.9388 47.7L83.1422 46.3203L90.1626 47.3552C90.3218 47.3787 90.4565 47.4455 90.5667 47.5557C90.6765 47.6695 90.7414 47.8056 90.7614 47.9639C90.7681 48.0408 90.7625 48.1159 90.7445 48.1892C90.73 48.2629 90.7036 48.3313 90.6654 48.3944C90.6302 48.4615 90.5837 48.5197 90.5258 48.569C90.4715 48.6188 90.4078 48.6582 90.3349 48.6872L84.4115 51.0238L89.4088 54.97C89.5312 55.0712 89.6103 55.1967 89.646 55.3466C89.6813 55.5 89.6679 55.6516 89.6061 55.8015C89.5417 55.9439 89.4406 56.0536 89.3027 56.1309C89.1648 56.2082 89.0163 56.2351 88.8571 56.2116L81.8367 55.1768Z" fill="white"/>
<path d="M82.4499 64.2585C82.2718 64.1839 82.0919 64.0718 81.9104 63.9222C81.7321 63.7739 81.5836 63.5915 81.4648 63.3751C81.348 63.1634 81.2778 62.9189 81.2543 62.6416C81.2295 62.3676 81.2847 62.069 81.42 61.7457L82.3913 59.4252L83.6134 59.9367L82.6421 62.2573C82.5689 62.4321 82.5651 62.5894 82.6306 62.7293C82.6994 62.8705 82.813 62.9742 82.9713 63.0405C83.1396 63.1109 83.2943 63.1117 83.4355 63.0429C83.5753 62.9774 83.677 62.8688 83.7405 62.717L84.7118 60.3965C84.785 60.2217 84.7872 60.0637 84.7184 59.9224C84.6529 59.7826 84.5409 59.6795 84.3826 59.6133L82.5865 58.8615C82.415 58.7897 82.2593 58.7866 82.1195 58.8521C81.9783 58.9209 81.8745 59.0345 81.8083 59.1928L80.8411 61.5034L79.6141 60.9898L80.5853 58.6693C80.6599 58.4912 80.772 58.3113 80.9217 58.1297C81.0699 57.9515 81.2506 57.8023 81.4637 57.6821C81.6787 57.5667 81.9232 57.4965 82.1972 57.4716C82.4745 57.4482 82.7748 57.5041 83.0981 57.6394L84.904 58.3953C85.0822 58.4699 85.2604 58.5813 85.4386 58.7295C85.6202 58.8792 85.7694 59.0599 85.8862 59.2716C86.005 59.488 86.0768 59.7332 86.1017 60.0072C86.1252 60.2845 86.0692 60.5848 85.9339 60.908L84.9626 63.2286C84.8881 63.4067 84.7767 63.5849 84.6284 63.7632C84.4787 63.9447 84.2964 64.0933 84.0814 64.2087C83.8683 64.3288 83.6231 64.4006 83.3458 64.4241C83.0718 64.449 82.7732 64.3938 82.4499 64.2585Z" fill="white"/>
<path d="M74.6436 69.2087L75.4474 68.069L78.0773 69.9239C78.2264 70.029 78.3779 70.0965 78.5319 70.1263C78.6867 70.1612 78.8374 70.1646 78.984 70.1367C79.1306 70.1088 79.268 70.0504 79.3963 69.9616C79.5255 69.8776 79.6386 69.767 79.7354 69.6297L81.1421 67.6353L77.5434 65.0972L78.3472 63.9576L82.52 66.9007C82.5989 66.9563 82.6617 67.0224 82.7083 67.0991C82.7578 67.1778 82.7889 67.2609 82.8014 67.3485C82.8169 67.4382 82.8146 67.5285 82.7943 67.6192C82.7741 67.7099 82.7361 67.7948 82.6805 67.8737L80.8689 70.4422C80.7679 70.5854 80.6457 70.7246 80.5022 70.8597C80.3567 70.9977 80.1929 71.1184 80.0106 71.2218C79.8291 71.3301 79.6334 71.4153 79.4235 71.4772C79.2144 71.5441 78.9928 71.576 78.7587 71.5728C78.5255 71.5746 78.284 71.5356 78.0341 71.4556C77.7842 71.3756 77.5307 71.2449 77.2736 71.0635L74.6436 69.2087Z" fill="white"/>
<path d="M69.2085 75.5307C69.1417 75.4561 69.0929 75.375 69.0622 75.2872C69.0316 75.1994 69.0187 75.1101 69.0237 75.0192C69.0284 74.9334 69.0507 74.8485 69.0908 74.7646C69.1281 74.6831 69.1828 74.6101 69.2546 74.5456L71.603 72.4403C71.7308 72.3257 71.881 72.2174 72.0537 72.1154C72.2237 72.0158 72.408 71.9347 72.6064 71.8721C72.8072 71.8122 73.0183 71.7718 73.2397 71.7509C73.4609 71.7351 73.684 71.7536 73.909 71.8064C74.1364 71.8619 74.3643 71.9554 74.5926 72.0868C74.8183 72.2207 75.0361 72.4048 75.2462 72.6391L77.3945 75.0353L76.3561 75.9663L74.2078 73.57C74.0861 73.4342 73.9536 73.332 73.8105 73.2634C73.6671 73.1999 73.5208 73.1653 73.3717 73.1597C73.2227 73.1541 73.0758 73.1778 72.9311 73.2307C72.7861 73.2886 72.651 73.3736 72.5259 73.4858L70.7088 75.115L73.6483 78.3938L72.6099 79.3248L69.2085 75.5307Z" fill="white"/>
<path d="M65.456 83.3596C64.8882 83.6486 64.1791 83.4179 63.8901 82.8501C63.5961 82.2725 63.8268 81.5634 64.3947 81.2744C64.9723 80.9804 65.6813 81.2111 65.9753 81.7887C66.2643 82.3565 66.0336 83.0656 65.456 83.3596Z" fill="white"/>
<path d="M48.6017 82.8787L49.986 82.6366L50.7753 87.1487L52.4615 82.4377C52.5023 82.318 52.5723 82.2205 52.6717 82.145C52.7675 82.0702 52.877 82.022 53.0003 82.0004C53.1201 81.9794 53.2377 81.9879 53.3532 82.0258C53.4652 82.0643 53.5607 82.1329 53.6397 82.2316L56.8355 86.0886L56.0462 81.5765L57.42 81.3362L58.6427 88.3263C58.6704 88.4848 58.6493 88.6337 58.5793 88.773C58.5057 88.9129 58.3969 89.0173 58.2529 89.086C58.182 89.1166 58.1089 89.1348 58.0337 89.1407C57.9591 89.1501 57.8859 89.1466 57.8141 89.1301C57.7393 89.1178 57.6694 89.0919 57.6045 89.0524C57.5401 89.0165 57.4827 88.9685 57.4322 88.9083L53.3533 84.0187L51.1765 90.0026C51.1189 90.1506 51.0246 90.2651 50.8936 90.3461C50.759 90.4278 50.6108 90.4628 50.4491 90.4511C50.2938 90.4347 50.1578 90.3732 50.0411 90.2666C49.9244 90.1599 49.8522 90.0273 49.8245 89.8688L48.6017 82.8787Z" fill="white"/>
<path d="M39.9759 86.3005C39.9908 86.108 40.0408 85.902 40.1259 85.6827C40.2107 85.4669 40.3372 85.2686 40.5054 85.088C40.6698 84.9106 40.8799 84.7672 41.1358 84.6579C41.3882 84.5483 41.6891 84.507 42.0384 84.534L44.5466 84.7279L44.4445 86.0488L41.9363 85.8549C41.7474 85.8403 41.5968 85.886 41.4846 85.9921C41.3721 86.1018 41.3093 86.2422 41.296 86.4133C41.282 86.5951 41.3298 86.7423 41.4394 86.8548C41.5455 86.967 41.6806 87.0294 41.8446 87.0421L44.3527 87.236C44.5416 87.2506 44.6924 87.2031 44.8049 87.0934C44.9171 86.9873 44.9798 86.8487 44.993 86.6776L45.1431 84.7363C45.1574 84.5509 45.1115 84.4021 45.0054 84.2899C44.8958 84.1774 44.7554 84.1146 44.5842 84.1013L42.0868 83.9083L42.1893 82.582L44.6975 82.7759C44.89 82.7908 45.0959 82.8408 45.3153 82.9259C45.5311 83.0107 45.7295 83.1354 45.9104 83.3001C46.0875 83.468 46.2309 83.6781 46.3405 83.9305C46.4498 84.1864 46.491 84.489 46.464 84.8384L46.3131 86.7904C46.2982 86.9829 46.2484 87.1871 46.1635 87.4029C46.0784 87.6222 45.9537 87.8206 45.7894 87.998C45.6212 88.1787 45.4109 88.3238 45.1586 88.4334C44.9026 88.5427 44.6 88.5839 44.2506 88.5569L41.7425 88.363C41.5499 88.3481 41.3458 88.2983 41.13 88.2135C40.9106 88.1284 40.7124 88.0018 40.5353 87.8339C40.3543 87.6693 40.2092 87.459 40.0998 87.2031C39.9902 86.9508 39.9489 86.6499 39.9759 86.3005Z" fill="white"/>
<path d="M32.868 80.4431L34.2024 80.8485L33.2669 83.9278C33.2139 84.1023 33.1974 84.2673 33.2174 84.4229C33.2329 84.5808 33.277 84.725 33.3495 84.8554C33.422 84.9858 33.5206 85.098 33.6452 85.1919C33.7655 85.2882 33.906 85.3608 34.0668 85.4097L36.4019 86.1191L37.682 81.9056L39.0163 82.3109L37.532 87.1968C37.504 87.2891 37.4609 87.3695 37.4028 87.4378C37.3436 87.5095 37.2744 87.5651 37.1951 87.6045C37.1149 87.6474 37.0284 87.6735 36.9359 87.6828C36.8434 87.692 36.751 87.6826 36.6586 87.6546L33.6512 86.7409C33.4835 86.69 33.313 86.6176 33.1397 86.5239C32.963 86.4291 32.7969 86.3114 32.6416 86.1707C32.4817 86.0325 32.3395 85.8734 32.2147 85.6935C32.0855 85.516 31.9857 85.3156 31.9153 85.0924C31.8403 84.8716 31.8016 84.63 31.7991 84.3676C31.7966 84.1052 31.8411 83.8235 31.9325 83.5224L32.868 80.4431Z" fill="white"/>
<path d="M25.1796 77.2488C25.2296 77.1621 25.2915 77.0904 25.3653 77.0339C25.4391 76.9774 25.52 76.9373 25.6079 76.9136C25.6909 76.8913 25.7785 76.8861 25.8707 76.8979C25.9599 76.908 26.0463 76.9371 26.1299 76.9853L28.8629 78.5593C29.0117 78.645 29.1614 78.7539 29.3122 78.8862C29.4599 79.0166 29.5945 79.1663 29.7159 79.3353C29.8355 79.5073 29.9398 79.6953 30.0287 79.8992C30.1127 80.1044 30.1647 80.3221 30.1848 80.5524C30.2031 80.7857 30.1854 81.0314 30.1317 81.2893C30.075 81.5455 29.9681 81.8099 29.811 82.0826L28.2049 84.8714L26.9964 84.1754L28.6025 81.3866C28.6936 81.2286 28.7493 81.0709 28.7698 80.9135C28.7854 80.7574 28.7726 80.6077 28.7314 80.4643C28.6902 80.3209 28.6219 80.1887 28.5265 80.0677C28.4262 79.9481 28.3033 79.8463 28.1576 79.7624L26.0428 78.5444L23.845 82.3604L22.6366 81.6644L25.1796 77.2488Z" fill="white"/>
<path d="M16.6025 76.1343C16.1504 75.6854 16.1477 74.9398 16.5966 74.4876C17.0532 74.0277 17.7989 74.025 18.251 74.4738C18.711 74.9305 18.7137 75.6761 18.257 76.1361C17.8082 76.5882 17.0625 76.5909 16.6025 76.1343Z" fill="white"/>
<path d="M11.7748 59.9806L12.4399 61.2185L8.40475 63.3864L13.407 63.5059C13.5334 63.507 13.6481 63.5428 13.7509 63.6134C13.8521 63.6808 13.9323 63.7696 13.9915 63.8799C14.0491 63.987 14.078 64.1013 14.0784 64.2229C14.0771 64.3413 14.042 64.4535 13.9731 64.5596L11.3165 68.806L15.3516 66.6381L16.0117 67.8666L9.7605 71.2251C9.61875 71.3013 9.47075 71.328 9.3165 71.3053C9.16055 71.2795 9.0273 71.2091 8.91672 71.0939C8.86543 71.0362 8.82517 70.9726 8.79593 70.9031C8.76354 70.8352 8.74387 70.7646 8.73691 70.6912C8.72511 70.6164 8.72772 70.5419 8.74475 70.4678C8.75862 70.3954 8.78617 70.3258 8.82741 70.259L12.1866 64.8496L5.82174 64.6646C5.66311 64.6565 5.52475 64.6029 5.40666 64.504C5.28687 64.402 5.20707 64.2723 5.16725 64.1151C5.13397 63.9625 5.14961 63.814 5.21417 63.6698C5.27872 63.5255 5.38187 63.4153 5.52362 63.3391L11.7748 59.9806Z" fill="white"/>
<path d="M5.87396 53.0475C6.06144 53.0013 6.27267 52.9841 6.50766 52.9962C6.73919 53.009 6.9671 53.067 7.1914 53.17C7.41137 53.2704 7.6134 53.425 7.79747 53.6337C7.98069 53.839 8.11427 54.1117 8.19819 54.452L8.80068 56.8943L7.51439 57.2116L6.9119 54.7693C6.86651 54.5853 6.77585 54.4566 6.63992 54.3833C6.50051 54.3109 6.34749 54.2953 6.18084 54.3364C6.00378 54.38 5.87904 54.4716 5.80662 54.611C5.73335 54.7469 5.71641 54.8947 5.7558 55.0544L6.35829 57.4968C6.40368 57.6808 6.49607 57.809 6.63548 57.8815C6.77141 57.9547 6.9227 57.9708 7.08934 57.9297L8.97972 57.4634C9.16026 57.4189 9.28716 57.3286 9.36044 57.1927C9.43286 57.0533 9.44851 56.9003 9.4074 56.7336L8.80749 54.3017L10.099 53.9831L10.7015 56.4255C10.7477 56.6129 10.7648 56.8242 10.7528 57.0592C10.74 57.2907 10.6837 57.5182 10.5842 57.7416C10.4803 57.9624 10.3257 58.1645 10.1205 58.3477C9.91173 58.5318 9.63726 58.6658 9.29702 58.7497L7.39623 59.2186C7.20875 59.2648 6.99925 59.2815 6.76773 59.2686C6.53274 59.2566 6.30526 59.2004 6.08528 59.1C5.86098 58.997 5.65722 58.8428 5.474 58.6376C5.28993 58.4288 5.15592 58.1544 5.072 57.8141L4.46951 55.3717C4.42327 55.1843 4.40658 54.9748 4.41944 54.7432C4.43145 54.5083 4.4894 54.2803 4.5933 54.0595C4.69287 53.8361 4.84701 53.6323 5.05574 53.4482C5.26099 53.265 5.53373 53.1314 5.87396 53.0475Z" fill="white"/>
<path d="M9.18533 44.5011L9.223 45.8951L6.00592 45.9821C5.82362 45.987 5.66185 46.0236 5.52061 46.0918C5.37569 46.1565 5.25285 46.2439 5.15209 46.3539C5.05133 46.464 4.97612 46.593 4.92646 46.741C4.87313 46.8855 4.84874 47.0418 4.85328 47.2098L4.91921 49.6494L9.32125 49.5304L9.35892 50.9245L4.25448 51.0624C4.15797 51.0651 4.06813 51.0496 3.98494 51.0161C3.89819 50.9826 3.82356 50.9346 3.76105 50.8719C3.69497 50.8093 3.6429 50.7356 3.60484 50.6507C3.56677 50.5659 3.54644 50.4753 3.54383 50.3787L3.45892 47.2367C3.45418 47.0616 3.46887 46.877 3.50297 46.6829C3.53698 46.4852 3.5961 46.2904 3.68035 46.0986C3.76092 45.9032 3.8668 45.7179 3.998 45.5427C4.12552 45.364 4.28401 45.2059 4.47346 45.0684C4.65924 44.9274 4.87618 44.8143 5.12427 44.7289C5.37236 44.6435 5.65369 44.5965 5.96825 44.588L9.18533 44.5011Z" fill="white"/>
<path d="M9.79879 36.0155C9.89684 36.0358 9.98427 36.0721 10.0611 36.1245C10.1379 36.1769 10.2013 36.2411 10.2513 36.3172C10.2985 36.389 10.331 36.4706 10.3486 36.5618C10.367 36.6496 10.3664 36.7408 10.3469 36.8353L9.70873 39.924C9.674 40.0921 9.61747 40.2684 9.53916 40.4531C9.46157 40.6342 9.36157 40.8089 9.23918 40.9772C9.11328 41.1447 8.96746 41.3026 8.80172 41.4509C8.63319 41.595 8.44274 41.7127 8.23037 41.8039C8.0145 41.8944 7.77568 41.9546 7.51391 41.9845C7.25286 42.0109 6.96825 41.9922 6.66008 41.9285L3.5084 41.2773L3.79059 39.9116L6.94227 40.5628C7.12087 40.5997 7.2881 40.6032 7.44398 40.5734C7.59708 40.5393 7.73526 40.4802 7.85852 40.3961C7.98178 40.312 8.0859 40.2058 8.17087 40.0773C8.25306 39.9445 8.31116 39.7959 8.34517 39.6313L8.83899 37.2413L4.52644 36.3502L4.80862 34.9845L9.79879 36.0155Z" fill="white"/>
<path d="M8.17011 27.4902C8.45701 26.9213 9.16524 26.688 9.73411 26.9749C10.3128 27.2667 10.5462 27.975 10.2593 28.5438C9.96741 29.1225 9.25918 29.3559 8.68049 29.064C8.11162 28.7771 7.87826 28.0689 8.17011 27.4902Z" fill="white"/>
<path d="M22.0819 17.813L21.1101 18.8281L17.8013 15.6604L19.2336 20.4547C19.2716 20.5753 19.273 20.6954 19.2377 20.8151C19.2048 20.9321 19.1451 21.0358 19.0586 21.1262C18.9745 21.2141 18.8747 21.2769 18.7592 21.3149C18.6461 21.3502 18.5286 21.3515 18.4065 21.3188L13.5469 20.1045L16.8557 23.2722L15.8913 24.2795L10.7653 19.3723C10.6491 19.261 10.5779 19.1285 10.5518 18.9748C10.5282 18.8185 10.554 18.67 10.6294 18.5293C10.6684 18.4627 10.7164 18.4047 10.7735 18.3554C10.828 18.3037 10.8891 18.2631 10.9568 18.2338C11.0243 18.1995 11.0959 18.1789 11.1716 18.1722C11.2448 18.1631 11.3195 18.1677 11.3958 18.1863L17.5785 19.7093L15.7874 13.5989C15.7462 13.4455 15.7543 13.2974 15.8119 13.1545C15.8719 13.009 15.9706 12.8931 16.1078 12.8066C16.2426 12.7278 16.3887 12.6968 16.5458 12.7136C16.703 12.7304 16.8397 12.7944 16.9559 12.9057L22.0819 17.813Z" fill="white"/>
<path d="M26.7943 10.0576C26.8967 10.2213 26.9789 10.4166 27.0409 10.6436C27.1009 10.8676 27.117 11.1022 27.0892 11.3474C27.0624 11.5878 26.9786 11.828 26.8378 12.068C26.7 12.3061 26.4826 12.5182 26.1856 12.7041L24.0533 14.0389L23.3503 12.9159L25.4826 11.5811C25.6432 11.4806 25.7371 11.3543 25.7643 11.2023C25.7896 11.0472 25.7567 10.897 25.6656 10.7515C25.5689 10.5969 25.443 10.507 25.2879 10.4817C25.1359 10.4545 24.9902 10.4846 24.8508 10.5718L22.7185 11.9066C22.5579 12.0072 22.4649 12.135 22.4396 12.29C22.4124 12.4421 22.4444 12.5908 22.5354 12.7363L23.5686 14.3866C23.6672 14.5443 23.7926 14.6366 23.9446 14.6638C24.0996 14.6891 24.2499 14.6562 24.3954 14.5651L26.5185 13.236L27.2244 14.3635L25.0921 15.6983C24.9284 15.8008 24.7331 15.883 24.5061 15.945C24.2821 16.005 24.0485 16.0226 23.8051 15.9978C23.5629 15.968 23.3227 15.8842 23.0846 15.7464C22.8445 15.6056 22.6315 15.3867 22.4456 15.0896L21.4068 13.4302C21.3043 13.2665 21.2231 13.0727 21.163 12.8487C21.1011 12.6217 21.0835 12.3881 21.1102 12.1477C21.1381 11.9025 21.2209 11.6608 21.3587 11.4226C21.4996 11.1826 21.7185 10.9696 22.0155 10.7837L24.1478 9.44887C24.3115 9.34641 24.5053 9.26516 24.7292 9.20511C24.9562 9.14316 25.1909 9.12707 25.4331 9.15684C25.6764 9.18168 25.9181 9.26452 26.1582 9.40535C26.3963 9.54314 26.6083 9.76056 26.7943 10.0576Z" fill="white"/>
<path d="M35.88 10.5481L34.5671 11.0183L33.4819 7.98858C33.4204 7.81689 33.3352 7.67457 33.2264 7.56162C33.1197 7.44409 32.9984 7.3546 32.8625 7.29315C32.7265 7.2317 32.5805 7.20044 32.4244 7.19938C32.2704 7.19375 32.1143 7.21927 31.9561 7.27594L29.6585 8.09889L31.1434 12.2446L29.8305 12.7149L28.1087 7.90765C28.0761 7.81675 28.0628 7.72656 28.0688 7.63708C28.0735 7.54423 28.0959 7.45833 28.136 7.3794C28.1749 7.2971 28.2287 7.22465 28.2974 7.16205C28.3662 7.09944 28.446 7.05186 28.5369 7.01931L31.496 5.95943C31.6609 5.90034 31.8409 5.85676 32.036 5.82868C32.2344 5.79939 32.4379 5.79487 32.6464 5.81513C32.8572 5.83081 33.0662 5.87367 33.2736 5.94372C33.4832 6.00919 33.6828 6.11052 33.8725 6.24769C34.0643 6.38029 34.2395 6.55115 34.3979 6.76027C34.5564 6.96939 34.6887 7.22208 34.7948 7.51832L35.88 10.5481Z" fill="white"/>
<path d="M43.9362 8.5009C43.9477 8.60035 43.9407 8.69477 43.9151 8.78414C43.8895 8.87351 43.8484 8.95388 43.7919 9.02524C43.7385 9.09264 43.6713 9.14905 43.5901 9.19447C43.5126 9.23948 43.4258 9.26755 43.3299 9.27869L40.1971 9.64256C40.0266 9.66237 39.8414 9.66408 39.6415 9.6477C39.4452 9.6309 39.2479 9.59081 39.0498 9.52743C38.8512 9.4605 38.6555 9.37164 38.4626 9.26084C38.2729 9.14608 38.1014 9.00221 37.9481 8.82922C37.7944 8.65268 37.6623 8.44483 37.5517 8.20568C37.4447 7.96612 37.373 7.69005 37.3367 7.37748L36.9654 4.18072L38.3507 4.01982L38.722 7.21659C38.743 7.39774 38.7922 7.55762 38.8695 7.69624C38.9499 7.83089 39.0494 7.94353 39.1679 8.03416C39.2864 8.12479 39.42 8.19027 39.5687 8.2306C39.7205 8.26696 39.8799 8.27545 40.0469 8.25606L42.4711 7.97449L41.963 3.60025L43.3483 3.43935L43.9362 8.5009Z" fill="white"/>
<path d="M51.6166 4.24466C52.247 4.33757 52.6917 4.93611 52.5988 5.56642C52.5043 6.20761 51.9058 6.65236 51.2754 6.55945C50.6343 6.46493 50.1895 5.8664 50.284 5.22521C50.3769 4.59489 50.9755 4.15014 51.6166 4.24466Z" fill="white"/>
<path d="M65.1833 14.381L63.9147 13.7763L65.8859 9.64145L61.7819 12.5041C61.6794 12.578 61.5657 12.6169 61.4411 12.6208C61.3196 12.6263 61.2024 12.6021 61.0894 12.5483C60.9797 12.496 60.8887 12.4209 60.8165 12.3231C60.7475 12.2268 60.7094 12.1156 60.7022 11.9894L60.3324 6.99404L58.3613 11.1289L57.1024 10.5288L60.156 4.12315C60.2253 3.9779 60.3288 3.86879 60.4666 3.79582C60.6076 3.72439 60.7567 3.70239 60.914 3.72982C60.9894 3.746 61.0595 3.77347 61.1242 3.81224C61.1905 3.84778 61.2481 3.89308 61.2971 3.94814C61.3509 4.00151 61.3929 4.0631 61.423 4.13291C61.4546 4.19949 61.4736 4.27191 61.4798 4.35017L61.9711 10.6987L67.2125 7.08298C67.3452 6.99571 67.4884 6.95703 67.6421 6.96693C67.7991 6.97838 67.9401 7.0357 68.0652 7.13892C68.1823 7.24228 68.2575 7.37122 68.2908 7.52574C68.3241 7.68026 68.3062 7.83014 68.2369 7.9754L65.1833 14.381Z" fill="white"/>
<path d="M74.0881 16.4684C73.9645 16.6168 73.8045 16.7558 73.6081 16.8854C73.414 17.0122 73.1961 17.1006 72.9544 17.1506C72.7177 17.2001 72.4634 17.1954 72.1914 17.1364C71.9222 17.0796 71.6529 16.9391 71.3837 16.7149L69.4508 15.1048L70.2987 14.0869L72.2316 15.6969C72.3772 15.8182 72.5265 15.8681 72.6794 15.8465C72.8346 15.8222 72.9671 15.7441 73.077 15.6122C73.1937 15.4721 73.2399 15.3244 73.2156 15.1692C73.1941 15.0163 73.1201 14.8872 72.9937 14.782L71.0608 13.1719C70.9152 13.0506 70.7648 13.0022 70.6096 13.0265C70.4566 13.048 70.3253 13.1247 70.2154 13.2566L68.9693 14.7526C68.8503 14.8955 68.8016 15.0434 68.8231 15.1963C68.8474 15.3515 68.9255 15.4841 69.0574 15.5939L70.982 17.1971L70.1307 18.2192L68.1978 16.6091C68.0494 16.4856 67.9104 16.3256 67.7808 16.1292C67.654 15.9351 67.5644 15.7186 67.5121 15.4796C67.4649 15.2401 67.4697 14.9858 67.5264 14.7166C67.5854 14.4446 67.727 14.174 67.9513 13.9047L69.2043 12.4004C69.3279 12.2521 69.4867 12.1145 69.6808 11.9876C69.8772 11.858 70.0938 11.7684 70.3304 11.7189C70.5722 11.669 70.8276 11.6723 71.0969 11.7291C71.3688 11.7881 71.6395 11.9297 71.9087 12.154L73.8416 13.764C73.99 13.8876 74.1276 14.0464 74.2545 14.2405C74.3841 14.4369 74.4725 14.6548 74.5197 14.8942C74.5719 15.1332 74.5686 15.3887 74.5096 15.6607C74.4529 15.9299 74.3124 16.1991 74.0881 16.4684Z" fill="white"/>
<path d="M76.5442 25.341L75.6873 24.2407L78.2263 22.2632C78.3701 22.1511 78.4787 22.0257 78.552 21.8871C78.6303 21.749 78.6774 21.6058 78.6933 21.4575C78.7092 21.3091 78.6933 21.1606 78.6455 21.012C78.6027 20.864 78.5297 20.7237 78.4264 20.5911L76.9268 18.6657L73.4526 21.3717L72.5957 20.2715L76.6242 17.1337C76.7004 17.0744 76.7819 17.0336 76.8687 17.0112C76.9584 16.9867 77.047 16.9812 77.1345 16.9946C77.2249 17.0058 77.3105 17.0343 77.3914 17.08C77.4724 17.1258 77.5425 17.1867 77.6018 17.2629L79.5333 19.7426C79.6409 19.8809 79.7386 20.0382 79.8262 20.2147C79.916 20.3941 79.9839 20.586 80.0298 20.7904C80.0808 20.9955 80.1054 21.2075 80.1036 21.4264C80.1069 21.6459 80.0731 21.8672 80.002 22.0902C79.936 22.3139 79.8284 22.5337 79.6793 22.7495C79.5301 22.9654 79.3315 23.17 79.0832 23.3634L76.5442 25.341Z" fill="white"/>
<path d="M81.0428 32.4288C80.9519 32.4708 80.8601 32.4937 80.7672 32.4973C80.6743 32.5009 80.5851 32.487 80.4996 32.4557C80.4189 32.4261 80.3443 32.3798 80.2758 32.317C80.2088 32.2574 80.155 32.1838 80.1144 32.0962L78.7891 29.2343C78.717 29.0785 78.6574 28.9031 78.6105 28.7081C78.565 28.5164 78.5414 28.3165 78.5397 28.1085C78.5411 27.8989 78.5643 27.6852 78.6093 27.4674C78.6589 27.2513 78.742 27.0434 78.8583 26.8437C78.978 26.6425 79.1341 26.452 79.3266 26.2722C79.5207 26.0956 79.7605 25.9412 80.0461 25.809L82.9664 24.4566L83.5524 25.7221L80.6321 27.0745C80.4666 27.1511 80.3301 27.2478 80.2226 27.3646C80.1199 27.4831 80.044 27.6128 79.995 27.7537C79.946 27.8946 79.9255 28.042 79.9337 28.1958C79.9467 28.3514 79.9885 28.5055 80.0591 28.658L81.0846 30.8725L85.0806 29.022L85.6666 30.2875L81.0428 32.4288Z" fill="white"/>
<path d="M87.4447 38.3909C87.5521 39.0189 87.1212 39.6275 86.4932 39.7348C85.8543 39.8441 85.2457 39.4132 85.1384 38.7852C85.0291 38.1464 85.46 37.5377 86.0988 37.4285C86.7269 37.3211 87.3355 37.752 87.4447 38.3909Z" fill="white"/>
</svg>
