<svg viewBox="0 0 28 28" fill="none" xmlns="http://www.w3.org/2000/svg">
<g clip-path="url(#clip0_1253_4634)">
<path d="M1.50003 22.5C0.50024 20.5001 0.742615 18.4999 2.50006 16.5C4.69695 14 8.0003 14.5 9.00024 15C10.0002 15.5 10.9917 16.4856 11.7908 17.5159C11.8453 17.5865 11.9548 17.5787 12.0002 17.5L12.0838 17.3551C15.0725 12.1786 14.8809 8.40048 17.8699 3.22348C17.913 3.1488 17.9532 3.07243 18.0002 3.00002C18.1969 2.69208 19.0002 2.50002 19.5975 3.35081C20.1948 4.2016 20.8689 5.65955 21.5001 7.00003C22.1312 8.34052 22.5001 9.79915 25.0001 11.5C26.0514 12.2153 26.5002 13.5 27.0002 15C27.5002 16.5 26.5002 20 25.0002 20C23.5002 20 24.5002 19 24.0002 17.5C23.5002 16 22.4029 15.9999 21.0002 15.5C19.5975 15 18.5002 14 18.0002 12.5C17.5001 11.4999 17.1422 13.2091 16.5002 14.5C15.0002 17.5159 14.5002 18.5 13.5002 21.5C13.1669 22.5 11.7908 24 11 24.5C10.2092 25 7.50003 26 6.00022 25.5C4.50041 24.9999 2.49982 24.4999 1.50003 22.5Z" fill="white"/>
</g>
<defs>
<clipPath id="clip0_1253_4634">
<rect width="28" height="28" fill="white"/>
</clipPath>
</defs>
</svg>
