<svg viewBox="0 0 28 28" fill="none" xmlns="http://www.w3.org/2000/svg">
<path fill-rule="evenodd" clip-rule="evenodd" d="M26.059 14.341C26.451 14.1399 26.9418 14.3792 26.9761 14.8049C27.0492 15.7152 26.955 16.6307 26.6883 17.521C25.1348 22.6916 18.1995 25.3019 11.1909 23.3554C4.18209 21.409 -0.242784 15.6447 1.31062 10.4793C2.86396 5.30848 9.79957 2.69795 16.8082 4.64463C19.6826 5.44555 20.6719 6.17186 21.5 7C21.7718 7.27182 22 7.5 22 8C22 8.28078 21.6847 8.40388 21.3196 8.5464C21.0346 8.65767 20.7192 8.78078 20.5 9C20 9.5 19.506 10.1158 19.5 11.5C19.494 12.8842 21.6044 14.3871 23.4978 14.6941C24.4471 14.8488 25.3552 14.7015 26.059 14.341ZM14.1721 8.0235C14.1721 7.51436 13.9533 7.01098 13.5794 6.65122C12.8256 5.93204 11.4853 5.93204 10.7315 6.65122C10.3574 7.01098 10.1447 7.51436 10.1447 8.0235C10.1447 8.5325 10.3574 9.03037 10.7315 9.39013C11.1056 9.74969 11.6233 9.95973 12.1585 9.95973C12.6878 9.95973 13.2055 9.74969 13.5794 9.39013C13.9533 9.03037 14.1721 8.53245 14.1721 8.0235ZM5.30106 8.25933C4.46119 8.96205 4.37491 10.1848 5.11144 10.9871C5.50855 11.4297 6.06638 11.651 6.62452 11.651C7.09623 11.651 7.56814 11.4961 7.95357 11.1753C8.7877 10.4725 8.87418 9.24973 8.14359 8.44206C7.41285 7.6344 6.14129 7.55123 5.30106 8.25933ZM7.61242 13.9624C7.08876 13.0164 5.86879 12.6622 4.89105 13.1656C3.90716 13.6747 3.5388 14.8473 4.06256 15.7881C4.42498 16.4411 5.12099 16.8117 5.84026 16.8117C6.16241 16.8117 6.48472 16.74 6.78961 16.5847C7.76771 16.0758 8.14166 14.9028 7.61242 13.9624Z" fill="white"/>
</svg>
