<svg viewBox="0 0 21 30" fill="none" xmlns="http://www.w3.org/2000/svg">
<path d="M17.6903 23.0498C17.8115 22.7071 17.9117 22.3539 17.9886 21.9998C18.0835 21.5659 18.1446 21.1217 18.172 20.6785L20.9983 0.290394C21.011 0.200305 20.9667 0.112287 20.8866 0.0677603C20.8065 0.022198 20.7074 0.0294466 20.6347 0.0843284L4.07111 12.6813C3.69371 12.9267 3.33317 13.2011 2.99794 13.4983C2.7249 13.7406 2.46346 14.0036 2.22205 14.277C1.84465 14.7057 1.50625 15.1727 1.2174 15.6635C-1.29054 19.9298 0.20326 25.4035 4.54655 27.867C8.88984 30.3305 14.4623 28.8631 16.9703 24.5969C17.2591 24.106 17.5016 23.5852 17.6903 23.0498Z" fill="white"/>
</svg>
