<svg viewBox="0 0 28 28" fill="none" xmlns="http://www.w3.org/2000/svg">
<path d="M1.18457 7.25209C1.18927 6.95854 1.42741 6.81726 1.59034 6.64144C5.64963 2.28998 11.6892 0.958802 17.3214 3.17064C17.5408 3.25697 17.7648 3.33075 17.9732 3.43907C18.2865 3.60233 18.4824 3.51128 18.6406 3.21302C18.7691 2.97127 18.9101 2.73267 19.0761 2.51446C19.4819 1.97917 20.2026 1.8473 20.7572 2.18638C21.2914 2.51446 21.4575 3.16436 21.2115 3.78913C21.058 4.17687 20.5363 4.49711 20.7462 4.91781C20.9123 5.24904 21.3682 5.4327 21.6862 5.69172C24.6394 8.10135 26.4709 11.1624 26.908 14.977C27.1446 17.0444 26.9315 19.0883 26.1999 21.0568C26.1607 21.1604 26.1482 21.2923 26.0134 21.3394C25.8599 21.308 25.8677 21.1761 25.8458 21.0647C25.1846 17.6629 21.5358 15.4856 18.2223 16.5452C17.7194 16.7054 17.5424 16.6787 17.4123 16.0994C16.6666 12.8013 13.2042 10.8595 9.95645 11.8971C9.50055 12.0431 9.33604 12.0321 9.22011 11.4968C8.50257 8.19082 4.98379 6.16109 1.75484 7.14691C1.57624 7.20186 1.40547 7.33529 1.18614 7.24738L1.18457 7.25209Z" fill="white"/>
<path d="M5.42386 26.275C2.75422 26.2656 1.0058 23.4729 2.24035 21.0963C3.07226 19.4951 2.74639 19.74 4.13291 20.5154C5.06195 21.035 5.05255 21.0523 4.56688 21.9926C4.21124 22.6817 4.33188 23.3144 4.87865 23.6362C5.46929 23.9831 6.06933 23.7869 6.50331 23.0836C8.59327 19.6991 9.41329 18.5 11.9273 14.6474C12.4255 13.8358 12.4976 13.8122 13.3593 14.2439C13.4643 14.2957 13.5677 14.3523 13.6664 14.415C14.5327 14.9692 14.5625 15.1167 14.0298 15.9801C11.5001 19.8469 10.6644 21.0586 8.57133 24.465C7.84439 25.6455 6.81038 26.264 5.42386 26.2766V26.275Z" fill="white"/>
</svg>
