<svg width="300" height="300" viewBox="0 0 300 300" fill="none" xmlns="http://www.w3.org/2000/svg">
<circle opacity="0.3" cx="150" cy="150" r="150" fill="#C4C4C4"/>
<path d="M196.082 202.71H205.027V219.158H102.301V202.657H112.578H112.624L112.67 202.654C117.412 202.362 121.092 202.126 123.886 201.67C126.662 201.216 128.847 200.51 130.393 199.071C131.979 197.594 132.655 195.574 132.959 193.081C133.259 190.612 133.221 187.409 133.155 183.348V117.715V116.215H131.655H102.301V100.185C114.291 99.6389 123.226 98.0428 130.018 94.8775C136.866 91.6857 141.445 86.941 144.792 80.3184H175.771V184.585C175.771 188.384 175.851 191.439 176.275 193.843C176.704 196.273 177.515 198.231 179.129 199.656C180.712 201.055 182.862 201.756 185.552 202.15C188.247 202.544 191.703 202.657 196.064 202.71L196.073 202.71H196.082Z" stroke="white" stroke-width="3"/>
</svg>
