<svg width="300" height="300" viewBox="0 0 300 300" fill="none" xmlns="http://www.w3.org/2000/svg">
<circle opacity="0.3" cx="150" cy="150" r="150" fill="#C4C4C4"/>
<path d="M123.918 202.71H123.955L123.992 202.708C128.797 202.469 132.545 202.243 135.426 201.835C138.277 201.431 140.505 200.822 142.118 199.664C143.828 198.437 144.663 196.734 145.036 194.613C145.393 192.579 145.349 190.017 145.218 186.898V177.552V176.052H143.718H69.8494V155.924L149.533 80.3185H186.556V157.145V158.645H188.056H211.306V176.052H188.056H186.556V177.552V191.594C186.489 193.651 186.63 195.481 187.23 197.031C187.859 198.656 188.955 199.877 190.581 200.737C192.145 201.566 194.164 202.043 196.651 202.326C199.153 202.61 202.252 202.71 206.046 202.71H211.306V219.158H118.339V202.71H123.918ZM143.771 158.645H145.254L145.271 157.162L145.804 111.445L145.844 107.991L143.292 110.32L93.2062 156.037L90.3491 158.645H94.2175H143.771Z" stroke="white" stroke-width="3"/>
</svg>
