<svg width="300" height="300" viewBox="0 0 300 300" fill="none" xmlns="http://www.w3.org/2000/svg">
<circle opacity="0.3" cx="150" cy="150" r="150" fill="#C4C4C4"/>
<path d="M194.989 187.04C197.356 183.742 198.427 178.83 198.668 172.149H218.462C218.634 175.145 218.634 177.46 218.634 179.077C218.634 191.195 217.098 199.581 213.617 205.808C207.494 216.418 192.97 223.346 174.548 223.346C169.271 223.346 165.349 223.057 160.641 221.977C155.897 220.888 150.316 218.988 141.731 215.709L141.721 215.706L141.711 215.702C130.713 211.686 123.489 209.956 117.206 209.956C113.645 209.956 110.738 210.578 108.115 212.21C105.7 213.714 103.652 215.998 101.556 219.131H81.7151C81.3647 216.084 81.3647 214.262 81.3647 211.997V211.99C81.3647 199.094 87.886 185.389 99.1321 174.841C104.174 170.182 107.149 167.617 113.182 163.964C119.285 160.269 128.484 155.484 145.981 146.43L145.985 146.428C153.498 142.512 158.985 138.459 162.594 133.877C166.236 129.253 167.91 124.162 167.91 118.319C167.91 111.108 164.59 105.144 158.815 101.034C153.084 96.9552 144.997 94.7354 135.398 94.7354C127.383 94.7354 119.287 96.6415 113.791 99.8472C109.776 102.182 107.273 105.234 103.868 111.466L102.32 114.299L105.484 113.655C108.876 112.964 112.101 112.511 113.802 112.511C123.002 112.511 129.749 119.01 129.749 126.748C129.749 136.886 120.582 144.718 106.993 144.718C99.2311 144.718 92.9098 142.239 88.5384 138.029C84.172 133.824 81.6307 127.777 81.6307 120.4C81.6307 108.003 88.5729 96.9805 100.361 88.9957C112.156 81.0057 128.725 76.1314 147.632 76.1314C168.146 76.1314 184.962 80.7821 196.603 88.8087C208.201 96.8062 214.698 108.167 214.698 121.84C214.698 135.149 208.247 146.422 195.884 154.119L195.883 154.12C185.132 160.819 179.843 162.854 151.724 170.157L151.717 170.159C139.717 173.334 131.892 175.835 125.677 179.023C119.415 182.235 114.855 186.11 109.313 191.91L111.001 194.319C124.698 188.297 131.245 186.712 142.739 186.712C148.819 186.712 160.494 188.318 177.888 191.593L177.903 191.596L177.918 191.599C179.216 191.816 181.176 192.099 183.112 192.099C188.326 192.099 192.347 190.721 194.989 187.04Z" stroke="white" stroke-width="3"/>
</svg>
