<svg width="300" height="300" viewBox="0 0 300 300" fill="none" xmlns="http://www.w3.org/2000/svg">
<circle opacity="0.3" cx="150" cy="150" r="150" fill="#C4C4C4"/>
<path d="M137.342 154.631V138.074C147.948 137.147 152.188 136.202 157.444 133.845C164.755 130.566 169.331 123.686 169.331 115.56C169.331 108.347 166.066 102.491 160.249 98.4952C154.49 94.5384 146.308 92.4485 136.43 92.4485C130.847 92.4485 126.371 92.9216 122.158 94.2155C117.939 95.5109 114.07 97.6023 109.661 100.729L105.822 103.453H110.529C117.04 103.453 120.119 103.949 122.376 105.146L122.407 105.162L122.438 105.177C126.777 107.228 129.429 112.014 129.429 117.428C129.429 126.646 121.044 133.751 108.446 133.751C101.403 133.751 95.9131 131.776 92.1984 128.363C88.499 124.964 86.3953 119.989 86.3953 113.639C86.3953 102.257 92.1432 92.9544 102.731 86.4273C113.375 79.8661 128.904 76.1314 148.232 76.1314C169.035 76.1314 185.352 79.584 196.411 85.8359C207.399 92.047 213.166 100.982 213.166 112.198C213.166 120.906 209.22 128.904 202.475 134.282C197.509 138.076 192.532 140.098 181.096 142.425L181.006 145.344C194.847 149.067 200.614 151.36 206.958 155.895L206.96 155.896C215.504 161.98 219.681 169.752 219.681 180.021C219.681 196.396 208.933 210.481 190.328 217.355L190.32 217.358L190.312 217.361C180.107 221.263 163.081 223.346 143.746 223.346C123.465 223.346 109.382 220.315 98.998 213.708L98.9771 213.695L98.9558 213.682C87.0189 206.629 80.8413 196.716 80.8413 185.838C80.8413 178.836 83.4385 172.956 87.8325 168.82C92.2331 164.679 98.5254 162.204 106.043 162.204C118.857 162.204 128.094 170.228 128.094 179.968C128.094 185.024 126.47 188.664 123.325 191.2C120.107 193.796 115.099 195.396 108.026 195.867L103.089 196.196L107.378 198.664C112.535 201.632 116.724 203.584 121.291 204.778C125.853 205.972 130.71 206.388 137.177 206.388C148.118 206.388 157.053 203.875 163.288 199.058C169.572 194.202 172.962 187.118 172.962 178.367C172.962 169.602 168.494 162.239 160.863 158.454C155.998 156.025 151.138 155.302 137.342 154.631Z" stroke="white" stroke-width="3"/>
</svg>
