<svg xmlns="http://www.w3.org/2000/svg" viewBox="14.4903 61.3687 371.4 277.9">
	<path d="M 237 247 C 428 123 135 20 86 234 C 79 353 234 314 320 255 C 338 243 324 216 290 250 C 271 271 256 290 231 323 C 225 343 258 308 280 300 C 278 308 271 319 266 328 C 267 341 284 319 300 316 C 294 341 314 343 323 327 C 339 328 358 326 365 321 C 377 262 316 252 329 292 C 307 296 301 314 316 325 C 308 334 305 330 306 320 C 309 305 297 307 280 318 C 297 287 281 286 251 308 C 262.3333 294 273.6667 280 286 265 C 319 225 331 244 311 253 C 294 263 281 271 260 281 C 172 316 85 320 94 231 C 143 32 410 128 235 240 C 230 244 233 248 237 247 Z M 88 227 C 73 221 58 213 43 202 C 40 198 35 198 35 209 C 35 250 35 271 17 293 C 15 297 19 302 27 293 C 32 288 34 281 37 273 C 39 269 41 266.3333 43 263 C 48 258 53 272 55 276 C 56 281 62 284 63 275 C 64 268 65 263 67 258 C 69 254 71 259 73 261 C 76 264 80 263 81 257 C 83 251 83 251 87 255 C 86 252 86 249 86 246 C 83 244 78 245 75 252 C 68 245 60 249 58 265 C 54 258 46 251 40 257 C 42 242 42 221 42 210 C 56 220 72 228 86 234 C 87 230 87 230 88 227 Z Z M 240 112 C 242 98 217 89 209 86 C 190 81 173 84 163 90 C 156 95 163 99 169 98 C 182 99 188 107 191 114 C 194 114 196 113 198 113 C 196 105 189 96 176 92 C 201 85 231 100 234 111 Z M 126 153 C 122 149 121 126 132 112 C 138 103 133 101 123 106 C 93 124 85 183 101 193 C 102 190.6667 103 188.3333 104 186 C 93 165 108 127 122 116 C 112 137 117 148 121 160 Z M 297 147 C 299 147 299 144 300 142 C 301 139 304 141 307 142 C 311 144 314 142 313 138 C 313 131 311 127 321 138 C 325 143 330 140 329 135 C 326 122 330 115 377 119 C 386 121 386 112 378 112 C 364 110 333 88 336 68 C 337 62 330 61 327 70 C 314 93 299 115 272 122 C 274 123 278 125 280 127 C 300 119 319 101 329 79 C 335 93 346 104 357 111 C 327 110 323 118 321 128 C 315 121 305 124 306 134 C 297 132 295 136 293 140 Z M 154 183 C 169 181 166 169 155 176 C 150 177 145 178 140 177 C 133 175 133 183 140 184 C 146 185 153 184 154 183 M 193 168 C 199 164 206 151 204 140 C 202 134 197 136 198 143 C 198 150 194 160 188 163 C 186 163 186 160 185 157 C 183 152 177 155 179 161 C 181 169 187 172 193 168 Z M 134 209 C 139 243 173 228 172 195 C 171 188 163 182 153 187 C 140 194 127 209 116 207 C 109 207 111 213 116 214 C 122 215 128 212 134 209 Z M 140 205 C 146 200 152 195 159 192 C 164 191 166 195 165 200 C 162 221 147 226 143 217 C 141 213 140 207 140 205 M 219 164 C 223 199 262 197 261 151 C 258 133 231 146 208 163 C 196 171 204 174 211 169 C 213.6667 167.3333 216.3333 165.6667 219 164 Z M 254 152 C 255 182 236 188 229 174 C 226 169 227 164 226 160 C 233 154 247 146 254 152 Z M 190 212 C 207 220 231 210 226 192 C 223 185 217 182 207 180 C 202 179 201 181 202 186 C 202 192 195 199 187 203 C 181 207 186 210 190 212 M 209 188 C 231 193 215 213 195 207 C 202 203 210 194 209 188 Z M 119 242 C 119 235 126 235 126 242 C 126 246 126 250 126 254 C 126 259 120 260 119 254 C 119 250 119 246 119 242 M 135 234 C 135 228 142 228 142 234 C 142 237.3333 142 240.6667 142 244 C 142 250 135 250 135 244 C 135 240.6667 135 237.3333 135 234 M 245 192 C 245 186 251 186 251 192 C 251 194.3333 251 196.6667 251 199 C 251 204 245 204 245 199 C 245 196.6667 245 194.3333 245 192 M 254 186 C 256 182 261 183 261 187 C 260.6667 190 260.3333 193 260 196 C 257 199 254 198 253 195 C 253.3333 192 253.6667 189 254 186 M 338 294 C 324 268 351 270 356 290 C 360 298 359 308 359 317 C 347 319 334 322 323 320 C 308 315 317 298 332 300 C 337 302 342 300 338 294" fill="#000000"/>
</svg>